<mxfile host="app.diagrams.net" agent="Mozilla/5.0 (Macintosh; Intel Mac OS X 10_15_7) AppleWebKit/605.1.15 (KHTML, like Gecko) Version/18.2 Safari/605.1.15" version="26.0.13">
  <diagram name="Page-1" id="D3_0y7eIU9AepS_E3eT_">
    <mxGraphModel dx="1135" dy="993" grid="0" gridSize="10" guides="1" tooltips="1" connect="1" arrows="1" fold="1" page="0" pageScale="1" pageWidth="850" pageHeight="1100" math="0" shadow="0">
      <root>
        <mxCell id="0" />
        <mxCell id="1" parent="0" />
        <mxCell id="_OD5x8_ZnIkXinntdbCP-1" value="Front-End" style="rounded=1;whiteSpace=wrap;html=1;" vertex="1" parent="1">
          <mxGeometry x="172" y="93" width="120" height="60" as="geometry" />
        </mxCell>
        <mxCell id="_OD5x8_ZnIkXinntdbCP-2" value="Back-End&amp;nbsp;" style="rounded=1;whiteSpace=wrap;html=1;" vertex="1" parent="1">
          <mxGeometry x="349" y="98" width="120" height="60" as="geometry" />
        </mxCell>
        <mxCell id="_OD5x8_ZnIkXinntdbCP-3" value="Database" style="shape=cylinder3;whiteSpace=wrap;html=1;boundedLbl=1;backgroundOutline=1;size=15;" vertex="1" parent="1">
          <mxGeometry x="538" y="88" width="60" height="80" as="geometry" />
        </mxCell>
        <mxCell id="_OD5x8_ZnIkXinntdbCP-4" value="Desktop&amp;nbsp;" style="rounded=1;whiteSpace=wrap;html=1;" vertex="1" parent="1">
          <mxGeometry x="157" y="-41" width="120" height="60" as="geometry" />
        </mxCell>
        <mxCell id="_OD5x8_ZnIkXinntdbCP-5" value="Mobile" style="rounded=1;whiteSpace=wrap;html=1;" vertex="1" parent="1">
          <mxGeometry x="170" y="227" width="120" height="60" as="geometry" />
        </mxCell>
        <mxCell id="_OD5x8_ZnIkXinntdbCP-6" value="" style="endArrow=classic;startArrow=classic;html=1;rounded=0;fontSize=12;startSize=8;endSize=8;curved=1;entryX=0.008;entryY=0.367;entryDx=0;entryDy=0;entryPerimeter=0;" edge="1" parent="1" target="_OD5x8_ZnIkXinntdbCP-2">
          <mxGeometry width="50" height="50" relative="1" as="geometry">
            <mxPoint x="290" y="120" as="sourcePoint" />
            <mxPoint x="331" y="175" as="targetPoint" />
          </mxGeometry>
        </mxCell>
        <mxCell id="_OD5x8_ZnIkXinntdbCP-7" value="" style="endArrow=classic;startArrow=classic;html=1;rounded=0;fontSize=12;startSize=8;endSize=8;curved=1;entryX=0;entryY=0.5;entryDx=0;entryDy=0;entryPerimeter=0;exitX=1;exitY=0.5;exitDx=0;exitDy=0;" edge="1" parent="1" source="_OD5x8_ZnIkXinntdbCP-2" target="_OD5x8_ZnIkXinntdbCP-3">
          <mxGeometry width="50" height="50" relative="1" as="geometry">
            <mxPoint x="281" y="225" as="sourcePoint" />
            <mxPoint x="331" y="175" as="targetPoint" />
          </mxGeometry>
        </mxCell>
        <mxCell id="_OD5x8_ZnIkXinntdbCP-8" value="" style="endArrow=classic;startArrow=classic;html=1;rounded=0;fontSize=12;startSize=8;endSize=8;curved=1;exitX=0.617;exitY=1.017;exitDx=0;exitDy=0;exitPerimeter=0;entryX=0.5;entryY=0;entryDx=0;entryDy=0;" edge="1" parent="1" source="_OD5x8_ZnIkXinntdbCP-4" target="_OD5x8_ZnIkXinntdbCP-1">
          <mxGeometry width="50" height="50" relative="1" as="geometry">
            <mxPoint x="281" y="225" as="sourcePoint" />
            <mxPoint x="172" y="108" as="targetPoint" />
          </mxGeometry>
        </mxCell>
        <mxCell id="_OD5x8_ZnIkXinntdbCP-9" value="" style="endArrow=classic;startArrow=classic;html=1;rounded=0;fontSize=12;startSize=8;endSize=8;curved=1;exitX=0.5;exitY=0;exitDx=0;exitDy=0;entryX=0.5;entryY=1;entryDx=0;entryDy=0;" edge="1" parent="1" source="_OD5x8_ZnIkXinntdbCP-5" target="_OD5x8_ZnIkXinntdbCP-1">
          <mxGeometry width="50" height="50" relative="1" as="geometry">
            <mxPoint x="281" y="225" as="sourcePoint" />
            <mxPoint x="171" y="125" as="targetPoint" />
          </mxGeometry>
        </mxCell>
        <mxCell id="_OD5x8_ZnIkXinntdbCP-10" value="UI elements the user will interact with. The desktop will be available for both genreal users and admin, mobile will only be available for mobile.&amp;nbsp;" style="shape=note;whiteSpace=wrap;html=1;backgroundOutline=1;darkOpacity=0.05;" vertex="1" parent="1">
          <mxGeometry x="27" y="17" width="128" height="186" as="geometry" />
        </mxCell>
        <mxCell id="_OD5x8_ZnIkXinntdbCP-12" style="edgeStyle=none;curved=1;rounded=0;orthogonalLoop=1;jettySize=auto;html=1;exitX=1;exitY=0.75;exitDx=0;exitDy=0;fontSize=12;startSize=8;endSize=8;" edge="1" parent="1" source="_OD5x8_ZnIkXinntdbCP-4" target="_OD5x8_ZnIkXinntdbCP-4">
          <mxGeometry relative="1" as="geometry" />
        </mxCell>
        <mxCell id="_OD5x8_ZnIkXinntdbCP-13" value="Back-end will communicate data from database to the front-end&amp;nbsp;" style="shape=note;whiteSpace=wrap;html=1;backgroundOutline=1;darkOpacity=0.05;" vertex="1" parent="1">
          <mxGeometry x="368" y="186" width="95" height="137" as="geometry" />
        </mxCell>
      </root>
    </mxGraphModel>
  </diagram>
</mxfile>
